PathFileType	4	(X/Y/Z)	C:/Users/beibeiliu/ov580/test_trc\sequence.9_training_dense_left.trc
DataRate	CameraRate	NumFrames	NumMarkers	Units	OrigDataRate	OrigDataStartFrame	OrigNumFrames
120	120	12	19	mm	120	51	200
Frame#	Time	ThumbCMC			ThumbMCP			ThumbIP			ThumbTip			IndexMCP			IndexPIP			IndexTip			MiddleMCP			MiddlePIP			MiddleTip			RingMCP			RingPIP			RingTip			PinkyMCP			PinkyPIP			PinkyTip			BackHand1			BackHand2			BackHand3	
		X0	Y0	Z0	X1	Y1	Z1	X2	Y2	Z2	X3	Y3	Z3	X4	Y4	Z4	X5	Y5	Z5	X6	Y6	Z6	X7	Y7	Z7	X8	Y8	Z8	X9	Y9	Z9	X10	Y10	Z10	X11	Y11	Z11	X12	Y12	Z12	X13	Y13	Z13	X14	Y14	Z14	X15	Y15	Z15	X16	Y16	Z16	X17	Y17	Z17	X18	Y18	Z18	
50	0.416667	-221.221	40.8791	122.731	-202.736	49.3867	97.9071	-193.477	55.1498	74.5054	-186.11	53.8812	49.1495	-224.832	32.3603	48.3327	-194.946	28.6025	32.2342	-170.937	30.5698	50.371	-231.818	7.16071	40.7079	-213.65	6.08429	14.7964	-184.65	4.9233	2.94958	-232.592	-13.034	47.1153	-218.621	-18.5242	18.0133	-195.974	-15.3077	-2.13494	-225.206	-33.8599	57.819	-218.61	-42.4424	38.4097	-211.833	-45.7075	14.6766	-246.526	-14.6294	97.4794	-250.627	-15.6198	123.551	-251.129	15.4205	109.267	
51	0.425	-221.028	40.8709	122.601	-202.115	52.5633	99.7062	-194.324	54.639	74.0803	-187.535	51.7488	46.1534	-223.829	30.2164	45.7155	-195.633	31.0711	32.4775	-169.615	28.6741	53.945	-231.497	7.29835	40.7907	-216.083	8.46739	16.2277	-179.657	5.29535	1.74155	-231.676	-11.5619	45.3511	-218.743	-15.3099	18.1999	-197.307	-17.9692	0.477436	-224.513	-36.4555	60.9717	-216.425	-41.8275	34.9397	-207.481	-44.2462	13.2672	-245.182	-13.5796	95.4602	-248.461	-17.6642	124.491	-251.426	17.2346	108.362	
52	0.433333	-223.748	35.2464	119.201	-205.21	47.0074	100.895	-196.518	56.4014	68.6406	-189.438	50.4176	47.314	-225.47	26.4576	46.5596	-197.736	28.8558	32.131	-171.342	27.2554	53.3287	-231.395	3.3985	36.7066	-215.667	6.9644	15.3146	-182.941	10.364	2.88973	-230.317	-18.2404	47.1653	-218.739	-16.8882	18.9959	-195.71	-16.8915	-1.05218	-222.885	-37.821	59.076	-214.654	-42.8754	34.0189	-205.573	-50.1757	9.49203	-243.539	-16.1695	94.0299	-249.693	-21.4431	126.243	-251.738	14.2019	106.308	
53	0.441667	-224.253	36.172	121.797	-204.814	47.9081	96.552	-194.06	56.0112	71.3204	-186.697	49.4382	51.2857	-227.531	26.0856	47.3147	-198.823	30.5484	32.2108	-173.546	30.9658	47.8559	-232.36	6.20479	37.4237	-213.197	5.62218	13.3447	-183.005	7.9121	2.96773	-230.992	-14.2647	44.5637	-218.365	-19.0695	20.5322	-199.513	-14.7817	0.472564	-223.385	-35.3524	58.9285	-215.181	-40.7096	34.6877	-207.153	-47.3892	12.0572	-245.733	-21.8851	97.8968	-249.459	-21.7757	124.242	-252.886	12.9227	106.401	
54	0.45	-222.876	37.4786	117.167	-199.668	46.0744	101.082	-185.162	54.3715	76.2195	-175.599	47.0368	56.0971	-226.411	26.9051	46.6204	-196.155	32.0728	31.0514	-172.105	32.0702	45.2062	-231.148	2.11355	39.5813	-211.35	7.23609	13.927	-182.081	11.044	1.7294	-228.26	-17.9638	46.5234	-214.937	-19.9224	18.2321	-196.91	-13.1757	0.348318	-220.674	-35.649	56.5711	-212.538	-40.4883	35.368	-202.788	-43.9094	12.3712	-244.21	-20.7891	95.2884	-246.211	-22.9144	125.419	-250.272	12.8115	107.885	
55	0.458333	-217.85	34.0305	117.816	-189.321	42.9108	99.5746	-174.223	43.6325	78.6664	-160.722	39.2101	56.1396	-223.803	25.511	48.0719	-195.271	29.9691	31.6987	-167.539	30.7325	45.1074	-228.577	5.00945	39.6874	-210.19	7.87784	13.2039	-183.094	6.87537	1.65702	-226.998	-13.7802	48.1527	-212.736	-17.4563	16.4513	-195.096	-13.0218	-0.733894	-218.199	-36.3992	58.4024	-210.945	-38.5509	37.5616	-198.144	-46.1518	10.4585	-240.831	-17.0714	95.7067	-246.143	-18.5163	122.313	-250.478	11.6312	109.477	
56	0.466667	-215.066	36.6252	115.887	-184.628	41.6395	99.6647	-167.302	42.0575	77.374	-156.404	32.62	58.2072	-219.655	28.9214	46.0963	-192.338	33.3472	32.947	-165.371	34.2863	44.4011	-226.098	5.58234	38.0152	-206.071	5.8599	13.7575	-177.303	6.61385	0.718353	-224.649	-13.408	48.725	-211.159	-16.418	17.7443	-192.952	-9.75773	-2.24188	-216.683	-31.7747	62.2487	-210.069	-37.2088	39.3907	-198.788	-44.5803	12.7957	-239.29	-19.6206	91.815	-246.143	-20.4999	124.946	-246.554	15.2392	105.793	
57	0.475	-216.212	34.9368	120.242	-187.129	39.3853	102.194	-169.697	36.2187	77.0465	-159.848	27.1696	59.2919	-215.978	30.4086	46.0931	-188.941	32.1338	35.7285	-161.966	35.5263	48.7525	-225.124	4.45061	39.1396	-208.499	5.59905	17.3991	-175.692	9.4733	1.4611	-224.448	-12.6182	44.4993	-213.706	-13.5014	18.9872	-196.117	-10.1948	0.768824	-215.642	-32.9081	61.8167	-208.187	-39.8365	36.3	-201.066	-44.4971	13.8619	-236.528	-19.0077	95.7463	-245.559	-16.0859	123.578	-247.887	12.7823	108.451	
58	0.483333	-216.628	38.7642	121.123	-187.68	39.3789	101.617	-171.478	39.8643	80.127	-161.158	27.7698	57.3021	-218.174	29.9143	48.7745	-190.834	33.352	36.2156	-159.057	35.3365	48.9239	-225.281	4.74278	42.1396	-204.332	8.06118	14.9796	-176.78	12.1743	0.819239	-225.172	-13.8702	48.5744	-213.327	-14.9384	19.552	-197.467	-10.3399	0.954992	-216.32	-33.5226	61.478	-210.324	-36.5938	38.3547	-200.687	-41.4162	11.8497	-238.224	-14.6954	93.3066	-244.55	-18.5089	125.148	-248.406	11.9496	107.008	
59	0.491667	-216.522	36.4633	122.657	-187.583	36.9819	101.963	-171.938	36.685	79.6536	-162.535	24.5219	57.7723	-215.693	30.4333	46.4591	-187.873	36.1609	36.7123	-162.961	32.3951	44.5022	-224.809	2.37143	39.3957	-208.394	6.40616	17.6206	-178.598	6.77595	3.26497	-225.163	-16.0383	45.7524	-213.417	-14.2364	19.1752	-194.097	-12.5441	-3.01524	-215.677	-34.2459	63.6861	-208.592	-39.3806	34.7835	-200.976	-40.6528	14.8251	-238.544	-22.2951	98.387	-245.659	-22.6547	124.719	-249.419	13.4166	108.045	
60	0.5	-217.995	37.0402	122.983	-189.87	38.1437	103.011	-171.481	39.2903	76.6194	-164.352	28.6539	58.5086	-219.339	28.2915	51.5041	-191.763	32.3762	36.7254	-159.116	32.4901	44.457	-226.368	6.75257	41.0978	-208.873	5.79405	19.2934	-178.685	12.5158	0.853501	-225.322	-15.798	47.5697	-213.119	-17.402	20.5504	-196.733	-11.2225	0.737816	-216.247	-32.1559	62.6565	-209.334	-39.3626	38.6303	-203.388	-43.298	14.8036	-238.487	-18.5658	94.4973	-245.526	-19.8565	127.097	-247.233	8.36533	109.002	
61	0.508333	-217.823	37.4251	121.891	-188.723	40.7316	103.559	-172.114	42.8253	81.016	-161.213	35.4846	57.0763	-219.405	27.3966	51.1296	-191.37	33.6616	36.4999	-162.288	38.1166	41.7859	-225.186	6.63657	39.9375	-205.959	7.12511	16.7332	-179.264	13.193	1.36414	-223.723	-17.717	48.7342	-213.781	-14.9033	20.8345	-194.051	-12.7473	-1.26573	-216.138	-35.9261	60.8029	-209.524	-38.2305	36.6627	-201.85	-38.824	14.0809	-237.276	-20.3067	94.1756	-243.834	-20.5468	123.714	-250.796	12.9969	110.75	
